<svg width="50" height="50" viewBox="0 0 50 50" fill="none" xmlns="http://www.w3.org/2000/svg">
<path d="M25 0C18.3696 0 12.0107 2.63392 7.32233 7.32233C2.63392 12.0107 0 18.3696 0 25C0 31.6304 2.63392 37.9893 7.32233 42.6777C12.0107 47.3661 18.3696 50 25 50C31.6304 50 37.9893 47.3661 42.6777 42.6777C47.3661 37.9893 50 31.6304 50 25C50 18.3696 47.3661 12.0107 42.6777 7.32233C37.9893 2.63392 31.6304 0 25 0V0ZM39.253 34.1101L34.1071 39.256L25 30.1458L15.8899 39.253L10.744 34.1071L19.8571 25L10.747 15.8899L15.8929 10.747L25 19.8542L34.1101 10.744L39.256 15.8899L30.1429 25L39.253 34.1101Z" fill="white"/>
</svg>
