<svg width="32" height="32" viewBox="0 0 32 32" fill="none" xmlns="http://www.w3.org/2000/svg">
<path fill-rule="evenodd" clip-rule="evenodd" d="M21.8181 11.6365C21.8181 13.1796 21.2051 14.6595 20.114 15.7506C19.0229 16.8417 17.543 17.4547 15.9999 17.4547C14.4568 17.4547 12.9769 16.8417 11.8858 15.7506C10.7946 14.6595 10.1816 13.1796 10.1816 11.6365C10.1816 10.0935 10.7946 8.61359 11.8858 7.52247C12.9769 6.43134 14.4568 5.81836 15.9999 5.81836C17.543 5.81836 19.0229 6.43134 20.114 7.52247C21.2051 8.61359 21.8181 10.0935 21.8181 11.6365V11.6365ZM18.909 11.6365C18.909 12.4081 18.6025 13.148 18.0569 13.6936C17.5114 14.2391 16.7714 14.5456 15.9999 14.5456C15.2283 14.5456 14.4884 14.2391 13.9428 13.6936C13.3973 13.148 13.0908 12.4081 13.0908 11.6365C13.0908 10.865 13.3973 10.1251 13.9428 9.5795C14.4884 9.03394 15.2283 8.72745 15.9999 8.72745C16.7714 8.72745 17.5114 9.03394 18.0569 9.5795C18.6025 10.1251 18.909 10.865 18.909 11.6365V11.6365Z" fill="white"/>
<path fill-rule="evenodd" clip-rule="evenodd" d="M16 0C7.16364 0 0 7.16364 0 16C0 24.8364 7.16364 32 16 32C24.8364 32 32 24.8364 32 16C32 7.16364 24.8364 0 16 0ZM2.90909 16C2.90909 19.04 3.94618 21.8385 5.68436 24.0611C6.90506 22.458 8.47985 21.1589 10.2857 20.2652C12.0916 19.3715 14.0796 18.9073 16.0945 18.9091C18.0834 18.9072 20.0464 19.3593 21.8341 20.231C23.6217 21.1026 25.1869 22.3708 26.4102 23.9389C27.6705 22.286 28.519 20.3567 28.8857 18.3107C29.2523 16.2647 29.1264 14.1608 28.5185 12.1731C27.9106 10.1854 26.8381 8.37098 25.3898 6.88005C23.9415 5.38913 22.1589 4.26452 20.1896 3.59929C18.2204 2.93405 16.121 2.7473 14.0653 3.05451C12.0095 3.36171 10.0564 4.15402 8.36766 5.3659C6.6789 6.57777 5.303 8.17436 4.35379 10.0236C3.40458 11.8728 2.90935 13.9214 2.90909 16V16ZM16 29.0909C12.9948 29.0954 10.0804 28.0616 7.74982 26.1644C8.6879 24.8214 9.93649 23.725 11.3894 22.9683C12.8423 22.2116 14.4564 21.817 16.0945 21.8182C17.7122 21.8169 19.3069 22.2016 20.7461 22.9403C22.1853 23.6789 23.4274 24.7503 24.3695 26.0655C22.0208 28.0243 19.0583 29.0952 16 29.0909V29.0909Z" fill="white"/>
</svg>
