<svg width="48" height="48" viewBox="0 0 48 48" fill="none" xmlns="http://www.w3.org/2000/svg">
<g clip-path="url(#clip0_113_900)">
<path fill-rule="evenodd" clip-rule="evenodd" d="M50 0H0V50H50V0ZM45.8333 25C45.8333 36.5062 36.5062 45.8333 25 45.8333C13.4938 45.8333 4.16667 36.5062 4.16667 25C4.16667 13.4938 13.4938 4.16667 25 4.16667C36.5062 4.16667 45.8333 13.4938 45.8333 25ZM36.1146 16.9365C36.3195 17.1216 36.4425 17.3805 36.4566 17.6563C36.4707 17.9322 36.3746 18.2023 36.1896 18.4073L22.9948 32.9906L22.276 33.7833L21.5031 33.0448L13.8635 25.7531C13.6638 25.5622 13.5481 25.2998 13.5418 25.0236C13.5356 24.7473 13.6393 24.4799 13.8302 24.2802C14.0211 24.0805 14.2835 23.9647 14.5598 23.9585C14.836 23.9522 15.1034 24.056 15.3031 24.2469L22.1677 30.799L34.6437 17.0104C34.7356 16.9089 34.8465 16.8266 34.9702 16.768C35.0939 16.7094 35.2279 16.6757 35.3646 16.669C35.5013 16.6622 35.638 16.6824 35.7668 16.7285C35.8957 16.7746 36.0142 16.8456 36.1156 16.9375L36.1146 16.9365Z" fill="white"/>
</g>
<defs>
<clipPath id="clip0_113_900">
<rect width="48" height="48" fill="white"/>
</clipPath>
</defs>
</svg>
