<svg width="751" height="954" viewBox="0 0 751 954" fill="none" xmlns="http://www.w3.org/2000/svg">
<path d="M178.261 79.5H217.708V372.775C217.726 407.97 208.469 442.538 190.884 472.945L16.1298 774.648C5.635 792.771 0.0713697 813.363 0.000682084 834.345C-0.0700055 855.328 5.35475 875.957 15.7272 894.151C26.0997 912.345 41.0526 927.459 59.0761 937.968C77.0997 948.476 97.5557 954.006 118.379 954H632.621C653.444 954.006 673.9 948.476 691.924 937.968C709.947 927.459 724.9 912.345 735.273 894.151C745.645 875.957 751.07 855.328 750.999 834.345C750.929 813.363 745.365 792.771 734.87 774.648L560.116 473.025C542.517 442.594 533.26 407.997 533.292 372.775V79.5H572.739C583.202 79.5 593.235 75.3121 600.633 67.8575C608.031 60.4029 612.187 50.2924 612.187 39.75C612.187 29.2076 608.031 19.0971 600.633 11.6425C593.235 4.18794 583.202 0 572.739 0H178.261C167.798 0 157.765 4.18794 150.367 11.6425C142.969 19.0971 138.813 29.2076 138.813 39.75C138.813 50.2924 142.969 60.4029 150.367 67.8575C157.765 75.3121 167.798 79.5 178.261 79.5ZM296.604 372.775V79.5H454.396V372.775C454.395 422.055 467.382 470.45 492.029 513.013L563.272 636L666.625 814.716L680.991 833.16L666.779 854.516L661.898 864.96L652.361 869.126L640.684 874.5H632.621H118.3L98.5323 889.26L84.0827 854.55L78.8405 845.88V834.885V828.462L80.6158 820.44L84.2169 814.716L187.728 636L258.971 513.013C283.618 470.45 296.605 422.055 296.604 372.775ZM84.2169 814.716L80.6158 820.44L78.8405 828.462V834.885V845.88L84.0827 854.55L98.5323 889.26L118.3 874.5H632.621H640.684L652.361 869.126L661.898 864.96L666.779 854.516L680.991 833.16L666.625 814.716C670.12 820.751 671.975 827.608 672.002 834.595C672.029 841.583 670.227 848.454 666.779 854.516C663.331 860.578 658.358 865.618 652.361 869.126C646.364 872.635 639.556 874.488 632.621 874.5H118.3C111.359 874.502 104.54 872.659 98.5323 869.156C92.5245 865.653 87.5402 860.615 84.0827 854.55C80.6252 848.486 78.8169 841.609 78.8405 834.615C78.864 827.621 80.7186 820.757 84.2169 814.716Z" fill="white"/>
</svg>
