<svg width="37" height="37" viewBox="0 0 37 37" fill="none" xmlns="http://www.w3.org/2000/svg">
<path d="M3.08325 12.3332H33.9166M3.08325 9.24984C3.08325 8.43209 3.4081 7.64783 3.98634 7.06959C4.56458 6.49135 5.34883 6.1665 6.16659 6.1665H30.8333C31.651 6.1665 32.4353 6.49135 33.0135 7.06959C33.5917 7.64783 33.9166 8.43209 33.9166 9.24984V27.7498C33.9166 28.5676 33.5917 29.3518 33.0135 29.9301C32.4353 30.5083 31.651 30.8332 30.8333 30.8332H6.16659C5.34883 30.8332 4.56458 30.5083 3.98634 29.9301C3.4081 29.3518 3.08325 28.5676 3.08325 27.7498V9.24984Z" stroke="white" stroke-width="3" stroke-linecap="round" stroke-linejoin="round"/>
<path d="M3.08325 18.5H13.8749C13.8749 20.0417 14.7999 23.125 18.4999 23.125C22.1999 23.125 23.1249 20.0417 23.1249 18.5H33.9166" stroke="white" stroke-width="3" stroke-linecap="round" stroke-linejoin="round"/>
</svg>
